<svg viewBox="0 0 54 62" fill="none" xmlns="http://www.w3.org/2000/svg">
<path d="M28.3839 28.2533C27.6657 27.2659 24.315 24.1681 19.119 23.4878C13.9221 22.8067 10.0244 22.9433 10.0244 22.9433C10.0244 22.9433 6.06728 22.8493 5.84448 26.6361C5.62255 30.4237 5.84448 58.4474 5.84448 58.4474L2.85285 58.4978V59.0346H21.6711V58.4978H13.0326V53.6698C13.0326 53.6698 15.8049 55.4522 20.4741 54.2735C20.7895 54.1935 21.084 54.0343 21.3033 53.7942C21.6213 53.4479 21.8616 52.8833 21.2491 52.1378C20.1779 50.8329 17.0439 50.8904 17.0439 50.8904C17.0439 50.8904 16.2462 51.0148 16.5764 51.7751C16.9067 52.5354 17.465 53.7611 16.5764 53.7159C15.687 53.6698 13.6136 53.6019 14.2287 52.0474C14.2287 52.0474 15.1916 50.2884 15.7272 49.9195C15.7272 49.9195 19.0036 46.3172 19.5279 45.977C20.0521 45.6369 27.5967 38.7376 28.7928 34.9934C29.9907 31.2484 29.1021 29.2406 28.3839 28.2533ZM21.1871 37.2056C20.9651 39.7928 18.7424 44.031 16.4174 46.9922C14.0924 49.9543 13.0326 52.7624 13.0326 52.7624V24.8719C13.341 24.0098 14.2121 23.9811 14.2121 23.9811C14.2121 23.9811 18.3667 23.4704 20.3492 26.9423C22.3325 30.415 21.409 34.6185 21.1871 37.2056Z" fill="#FBD200"/>
<path d="M18.7992 35.424C18.6174 38.9872 15.7228 43.4351 15.7228 43.4351V35.5476C16.4148 36.4705 16.2252 38.1373 16.1439 38.6575C16.1378 38.6984 16.1911 38.721 16.2164 38.688C17.9228 36.3905 16.538 34.4749 15.7228 33.6485V27.6861C16.0627 27.9914 16.7949 28.8935 16.3921 30.7586C16.3833 30.7987 16.4375 30.8204 16.4593 30.7856C16.7669 30.2976 17.5043 28.7195 15.7228 26.8231V26.6422C16.2243 26.71 17.3409 27.2998 18.2295 28.6847C19.119 30.0688 18.9818 31.8617 18.7992 35.424Z" fill="#FBD200"/>
<path d="M20.4182 48.746C20.4182 48.746 29.6665 40.2869 30.1104 38.2278C30.1104 38.2278 31.5118 42.7209 31.8884 43.0619C31.8884 43.0619 31.5975 43.5213 31.7635 43.958C31.7635 43.958 25.3241 48.3206 25.6666 53.461C26.0083 58.6013 29.1711 56.8137 29.1711 56.8137C29.1711 56.8137 31.8377 54.6014 31.3083 52.7633C30.7788 50.9252 28.6417 51.6402 28.522 51.8438C28.522 51.8438 30.6416 51.9969 30.1287 53.9881C30.1287 53.9881 28.556 57.273 26.8296 54.7537C26.8296 54.7537 25.8554 52.0308 28.2144 48.1501C28.2144 48.1501 31.0863 44.2911 31.9242 44.2059C31.9242 44.2059 32.237 44.4286 32.6136 44.2642C32.6136 44.2642 33.3938 45.8361 34.1802 46.7721C34.9665 47.7082 36.0264 50.5676 36.0264 51.2488C36.0264 51.9299 37.0119 57.0755 35.1658 61.546C35.1658 61.546 25.228 59.8166 24.294 59.0354L24.2696 55.8489L23.0498 55.8176C23.0498 55.8176 27.2044 51.5367 20.4182 48.746Z" fill="#FBD200"/>
<path d="M36.4527 3.94854C36.4527 3.94854 15.8364 1.83811 5.85322 15.4541C-4.12994 29.0701 1.68206 43.0271 1.68206 43.0271C1.68206 43.0271 -2.55724 6.19554 35.78 4.76539C35.78 4.76539 39.3815 4.31129 43.2792 4.90197C43.2792 4.90197 43.3927 2.72369 43.6898 2.54187L42.9602 2.29221C42.9602 2.29221 41.0005 3.81283 41.0005 4.13035L41.2058 1.97469L39.018 1.77025L36.4527 3.94854Z" fill="#FBD200"/>
<path d="M40.1224 1.08911H41.3989L41.7239 0.0582495C41.737 0.0173632 41.6898 -0.0165637 41.6549 0.00866399L40.1224 1.08911Z" fill="#FBD200"/>
<path d="M51.3759 26.6196C51.3593 26.5682 47.473 16.0665 47.1078 15.8395C47.1078 15.8395 43.0336 15.4706 43.9056 11.7439C43.9056 11.7439 41.6147 14.6033 39.2556 10.8244C39.2556 10.8244 38.7174 7.67615 41.2906 7.20813C41.2906 7.20813 42.6667 7.06285 43.4189 7.78663L43.3927 6.76534C43.3927 6.76534 40.5636 4.68014 37.0932 5.24211C37.0932 5.24211 40.9655 7.13158 37.7004 10.0589C37.7004 10.0589 35.102 11.3864 33.5808 8.69744C33.5808 8.69744 33.427 6.43303 35.5633 7.67615C35.5633 7.67615 34.341 7.5648 34.4607 8.42428C34.5804 9.28463 35.6323 9.12283 35.6323 9.12283C35.6323 9.12283 36.4187 8.73136 36.299 7.78663C36.1793 6.8419 35.1701 6.63746 34.7691 6.61224C34.3672 6.58614 30.6975 6.96629 30.6975 6.96629L30.5376 6.83059C30.5376 6.83059 19.3924 8.96363 15.9272 11.8231C12.4629 14.6825 8.28042 18.8355 7.54562 20.798C7.54562 20.798 8.93047 20.2535 10.6569 20.3561C10.6569 20.3561 15.2894 13.3602 21.2386 14.2962C27.1869 15.2332 27.4263 21.066 25.9392 22.932C25.9392 22.932 30.4179 25.0537 31.5634 28.5934C31.5634 28.5934 32.2134 27.8444 32.2816 27.8444C32.3497 27.8444 30.8338 23.6496 36.6458 20.7215C42.4578 17.7942 44.145 21.6619 45.1708 22.932C46.1965 24.202 46.3678 28.1854 43.9397 29.3085C41.5125 30.4316 38.7087 31.2145 37.752 27.8444C36.9464 25.0085 39.1919 23.908 39.9232 23.6314C40.0673 23.5766 40.229 23.5853 40.3662 23.6557C40.8371 23.8993 41.9223 24.6344 42.2761 26.3586L40.3041 24.7832C40.2744 24.7588 40.2377 24.7457 40.1993 24.7449C39.7685 24.7344 37.2042 24.8006 38.4702 27.9244C38.4702 27.9244 39.4051 30.2958 43.4854 28.2306C43.4854 28.2306 45.4565 27.3338 44.7959 24.9171C44.1345 22.5005 43.0179 21.3905 40.8983 20.7641C40.132 20.5379 38.2308 20.7641 36.8293 21.8881C35.4279 23.0111 32.8294 24.7979 33.2051 27.0449L34.1112 26.5169C34.1112 26.5169 36.6755 30.6021 41.4618 32.9848C41.4618 32.9848 49.5306 31.3511 52.3851 28.1341" fill="#FBD200"/>
<path d="M23.4089 12.3389C21.6414 11.9988 17.1758 12.9827 16.0365 13.2463C15.9902 13.2567 15.9657 13.1941 16.0068 13.1706L22.0896 9.61868C22.094 9.61694 22.1001 9.61346 22.1036 9.61172C25.9095 8.29205 28.5377 10.3312 28.5552 11.5395C28.5718 12.7478 25.4438 12.7304 23.4089 12.3389Z" fill="#FBD200"/>
<path d="M11.21 20.2883H13.1934C13.1934 20.2883 17.9193 17.2696 21.596 21.3548C21.596 21.3548 25.4098 22.5805 25.5356 22.7728C25.5356 22.7728 26.5727 20.424 25.4106 18.6311C24.2486 16.8382 22.0145 16.9286 22.0145 16.9286C22.0145 16.9286 16.6586 17.7681 16.4305 17.7907C16.2016 17.8142 13.5804 18.0413 11.21 20.2883Z" fill="#FBD200"/>
<path d="M51.528 33.6181C51.1252 33.8312 50.2322 34.3488 49.701 34.9934C49.0344 35.8033 46.9269 37.4309 46.7251 37.5858C46.7155 37.5936 46.7024 37.5953 46.691 37.5901C46.4936 37.5023 44.7627 36.6698 44.4674 34.2627C44.4657 34.2462 44.4753 34.2296 44.4919 34.2253C44.8877 34.1052 49.4503 32.6664 53.0893 29.2859" fill="#FBD200"/>
<path d="M51.798 37.0647C50.8229 37.6241 49.3725 38.2721 48.1327 38.086C48.103 38.0816 48.0925 38.0451 48.1143 38.0242C48.5398 37.6301 51.3646 34.9804 51.7036 33.7538" fill="#FBD200"/>
<path d="M43.5526 8.82184L43.6898 9.99623C43.6898 9.99623 42.0673 10.9062 41.5422 9.56823C41.3971 9.19764 41.4496 8.76964 41.7126 8.47039C41.924 8.23029 42.2761 8.03195 42.8545 8.14156C42.9969 8.16853 43.1219 8.25552 43.1979 8.37905C43.2634 8.48431 43.2538 8.62262 43.1656 8.71049C43.0371 8.83836 42.7977 8.95928 42.3853 8.80096C42.3582 8.79052 42.3312 8.81836 42.3416 8.84532C42.4098 9.01757 42.6212 9.42643 43.0511 9.30551L43.5526 8.82184Z" fill="#FBD200"/>
</svg>
